<svg xmlns:xlink="http://www.w3.org/1999/xlink" xmlns="http://www.w3.org/2000/svg" width="208" height="50" viewBox="0 0 208 50" fill="none"><path d="M9.58319 40.2397H0.185219V0.455017H9.58319C12.263 0.455017 14.4514 1.25038 16.1501 2.84224C18.0371 4.58539 18.9806 7.04769 18.9806 10.2309V30.6914C18.9806 32.246 18.7546 33.6284 18.3014 34.8404C17.7728 36.1285 17.0368 37.1903 16.0939 38.0229C14.4705 39.5002 12.3007 40.2397 9.58319 40.2397ZM6.41305 33.9874H9.58319C10.7151 33.9874 11.5079 33.7797 11.9611 33.3625C12.4891 32.9081 12.7539 32.0185 12.7539 30.6914V10.2309C12.7539 8.90486 12.4699 7.95709 11.9037 7.38921C11.4134 6.93423 10.6397 6.70674 9.58319 6.70674H6.41305V33.9874Z" fill="black"/><path d="M50.5604 40.6941C47.8429 40.6941 45.6533 39.9179 43.9935 38.3644C42.1059 36.5451 41.1624 34.0641 41.1624 30.9188V25.7464H47.3902V30.9188C47.3902 32.282 47.673 33.2304 48.2398 33.7599C48.7296 34.2154 49.5038 34.4423 50.5604 34.4423C51.6546 34.4423 52.4288 34.2154 52.8815 33.7599C53.4477 33.2682 53.7311 32.321 53.7311 30.9188V28.4175C53.7311 26.6755 53.0322 25.1593 51.636 23.8711C51.3335 23.6064 50.5407 23.1136 49.2581 22.3933C47.4841 21.4467 46.1819 20.6129 45.3519 19.8926C43.9935 18.6807 42.9544 17.2977 42.238 15.7436C41.5211 14.1901 41.1624 12.5238 41.1624 10.7422V9.77583C41.1624 6.63106 42.1059 4.149 43.9935 2.33078C45.6533 0.777301 47.8429 0 50.5604 0C53.2779 0 55.4663 0.777301 57.1272 2.33078C59.0143 4.149 59.9583 6.63106 59.9583 9.77583V13.2429H53.7311V9.77583C53.7311 8.37477 53.4477 7.42643 52.8815 6.93419C52.4288 6.47978 51.6546 6.25172 50.5604 6.25172C49.5038 6.25172 48.7296 6.47978 48.2398 6.93419C47.673 7.46538 47.3902 8.41203 47.3902 9.77583V10.7422C47.3902 12.4854 48.088 13.9813 49.4847 15.2316C49.8614 15.5365 50.598 15.9903 51.6922 16.596C53.6546 17.6572 55.0136 18.5282 55.7688 19.2102C58.5616 21.7108 59.9583 24.7805 59.9583 28.4175V30.9188C59.9583 34.0641 59.0143 36.5451 57.1272 38.3644C55.4663 39.9179 53.2779 40.6941 50.5604 40.6941Z" fill="black"/><path d="M28.2134 6.70674V16.7095H35.2335V22.9618H28.2134V33.9874H38.4036V40.2397H21.9861V0.455017H38.4036V6.70674H28.2134Z" fill="black"/><path d="M80.8678 6.70674H74.5269V40.2397H68.2997V6.70674H61.9588V0.455017H80.8678V6.70674Z" fill="black"/><path d="M90.0179 40.2393H83.7906V0.454608H90.0179V40.2393Z" fill="black"/><path d="M113.056 40.2395H109.434L99.9221 20.0629V40.2395H93.6948V0.454811H97.3181L106.829 20.5749V0.454811H113.056V40.2395Z" fill="black"/><path d="M130.486 33.9308H123.352L122.22 40.2395H115.879L123.805 0.454806H130.033L137.959 40.2395H131.618L130.486 33.9308ZM129.409 27.679L126.919 13.4127L124.429 27.679H129.409Z" fill="black"/><path d="M154.075 6.70674H147.734V40.2397H141.506V6.70674H135.166V0.455017H154.075V6.70674Z" fill="black"/><path d="M162.841 40.2393H156.613V0.454608H162.841V40.2393Z" fill="black"/><path d="M176.099 40.6941C173.381 40.6941 171.192 39.9179 169.532 38.3639C167.644 36.5451 166.701 34.0641 166.701 30.9188V9.77527C166.701 6.63106 167.644 4.149 169.532 2.33078C171.192 0.776737 173.381 0 176.099 0C178.816 0 181.004 0.776737 182.665 2.33078C184.552 4.149 185.497 6.63106 185.497 9.77527V30.9188C185.497 34.0641 184.552 36.5451 182.665 38.3639C181.004 39.9179 178.816 40.6941 176.099 40.6941ZM176.099 6.25172C175.042 6.25172 174.268 6.47978 173.778 6.93419C173.211 7.46538 172.928 8.41203 172.928 9.77527V30.9188C172.928 32.282 173.211 33.2298 173.778 33.7599C174.268 34.2149 175.042 34.4423 176.099 34.4423C177.193 34.4423 177.967 34.2149 178.419 33.7599C178.986 33.2682 179.269 32.321 179.269 30.9188V9.77527C179.269 8.37477 178.986 7.42643 178.419 6.93419C177.967 6.47978 177.193 6.25172 176.099 6.25172Z" fill="black"/><path d="M201.773 0.454811V20.5749L192.262 0.454811H188.638V40.2395H194.866V20.0629L204.377 40.2395H208V0.454811H201.773Z" fill="black"/><path d="M0 48.3549H137.908V47.8344H0V48.3549Z" fill="black"/><path d="M144.096 49.9106V47.5777L145.926 44.4319H145.124L144.339 45.9438C144.128 46.3584 143.942 46.716 143.788 47.0737H143.772C143.602 46.6916 143.44 46.3584 143.23 45.9438L142.46 44.4319H141.659L143.383 47.5858V49.9106H144.096Z" fill="black"/><path d="M147.568 45.8869C146.483 45.8869 145.625 46.6591 145.625 47.976C145.625 49.2197 146.443 50 147.503 50C148.451 50 149.455 49.366 149.455 47.9109C149.455 46.7079 148.694 45.8869 147.568 45.8869ZM147.552 46.4234C148.394 46.4234 148.726 47.2688 148.726 47.9353C148.726 48.8213 148.216 49.4635 147.536 49.4635C146.84 49.4635 146.346 48.8132 146.346 47.9516C146.346 47.2037 146.71 46.4234 147.552 46.4234Z" fill="black"/><path d="M153.631 45.9763H152.919V48.3905C152.919 48.5206 152.895 48.6506 152.854 48.7563C152.725 49.0733 152.393 49.4066 151.915 49.4066C151.267 49.4066 151.04 48.9026 151.04 48.1548V45.9763H150.328V48.2767C150.328 49.6586 151.065 50 151.68 50C152.376 50 152.789 49.5854 152.976 49.2684H152.992L153.032 49.9106H153.664C153.639 49.6017 153.631 49.244 153.631 48.8376V45.9763Z" fill="black"/><path d="M154.812 49.9106H155.516V47.8134C155.516 47.6915 155.532 47.5777 155.549 47.4801C155.646 46.9436 156.002 46.5616 156.504 46.5616C156.601 46.5616 156.674 46.5697 156.747 46.586V45.9113C156.682 45.895 156.625 45.8869 156.544 45.8869C156.067 45.8869 155.638 46.2202 155.46 46.7485H155.427L155.403 45.9763H154.779C154.804 46.3421 154.812 46.7404 154.812 47.2037V49.9106Z" fill="black"/><path d="M163.354 47.033H161.557V47.602H162.666V49.2359C162.504 49.3172 162.188 49.3822 161.727 49.3822C160.456 49.3822 159.622 48.5612 159.622 47.1712C159.622 45.7975 160.488 44.9684 161.816 44.9684C162.367 44.9684 162.731 45.074 163.022 45.2041L163.193 44.627C162.958 44.5132 162.464 44.375 161.832 44.375C160.002 44.375 158.885 45.5699 158.877 47.2037C158.877 48.0573 159.168 48.7888 159.638 49.244C160.172 49.7561 160.853 49.9675 161.678 49.9675C162.415 49.9675 163.039 49.7805 163.354 49.6667V47.033Z" fill="black"/><path d="M167.69 45.9763H166.978V48.3905C166.978 48.5206 166.953 48.6506 166.913 48.7563C166.783 49.0733 166.451 49.4066 165.974 49.4066C165.326 49.4066 165.099 48.9026 165.099 48.1548V45.9763H164.387V48.2767C164.387 49.6586 165.123 50 165.739 50C166.435 50 166.848 49.5854 167.034 49.2684H167.051L167.091 49.9106H167.723C167.698 49.6017 167.69 49.244 167.69 48.8376V45.9763Z" fill="black"/><path d="M169.583 49.9106V45.9763H168.871V49.9106H169.583ZM169.227 44.4237C168.968 44.4237 168.781 44.6188 168.781 44.8708C168.781 45.1147 168.96 45.3098 169.211 45.3098C169.494 45.3098 169.672 45.1147 169.664 44.8708C169.664 44.6188 169.494 44.4237 169.227 44.4237Z" fill="black"/><path d="M173.44 44.1392V46.4884H173.424C173.246 46.1714 172.841 45.8869 172.242 45.8869C171.286 45.8869 170.477 46.6916 170.485 48.0004C170.485 49.1953 171.214 50 172.161 50C172.801 50 173.278 49.6667 173.497 49.2278H173.513L173.545 49.9106H174.185C174.161 49.6423 174.153 49.244 174.153 48.8945V44.1392H173.44ZM173.44 48.2605C173.44 48.3743 173.432 48.4718 173.408 48.5694C173.278 49.1059 172.841 49.4229 172.363 49.4229C171.594 49.4229 171.205 48.7644 171.205 47.9678C171.205 47.0981 171.643 46.4478 172.38 46.4478C172.914 46.4478 173.303 46.8217 173.408 47.2769C173.432 47.3663 173.44 47.4882 173.44 47.5777V48.2605Z" fill="black"/><path d="M178.488 48.0735C178.496 48.0004 178.513 47.8866 178.513 47.7402C178.513 47.0168 178.172 45.8869 176.893 45.8869C175.751 45.8869 175.055 46.8217 175.055 48.0085C175.055 49.1953 175.776 50 176.982 50C177.606 50 178.035 49.8618 178.286 49.748L178.164 49.2359C177.897 49.3497 177.589 49.4391 177.079 49.4391C176.367 49.4391 175.751 49.0408 175.735 48.0735H178.488ZM175.743 47.5614C175.8 47.0656 176.116 46.399 176.836 46.399C177.638 46.399 177.832 47.1062 177.824 47.5614H175.743Z" fill="black"/><path d="M181.273 45.2529V45.9763H180.665V46.5209H181.273V48.6669C181.273 49.1302 181.346 49.4798 181.548 49.6911C181.718 49.8862 181.985 50 182.317 50C182.592 50 182.811 49.9512 182.949 49.8943L182.916 49.3578C182.811 49.3904 182.698 49.4066 182.503 49.4066C182.107 49.4066 181.969 49.1302 181.969 48.6425V46.5209H182.989V45.9763H181.969V45.0334L181.273 45.2529Z" fill="black"/><path d="M185.404 45.8869C184.319 45.8869 183.46 46.6591 183.46 47.976C183.46 49.2197 184.278 50 185.339 50C186.286 50 187.29 49.366 187.29 47.9109C187.29 46.7079 186.529 45.8869 185.404 45.8869ZM185.387 46.4234C186.23 46.4234 186.561 47.2688 186.561 47.9353C186.561 48.8213 186.051 49.4635 185.371 49.4635C184.675 49.4635 184.181 48.8132 184.181 47.9516C184.181 47.2037 184.545 46.4234 185.387 46.4234Z" fill="black"/><path d="M189.652 49.6423C189.944 49.8374 190.519 50 191.045 50C192.332 50 192.956 49.2603 192.956 48.4149C192.956 47.6102 192.486 47.1631 191.563 46.8054C190.81 46.5128 190.478 46.2608 190.478 45.7487C190.478 45.3748 190.762 44.9277 191.507 44.9277C192 44.9277 192.365 45.0903 192.543 45.1878L192.737 44.6107C192.494 44.4725 192.09 44.3425 191.531 44.3425C190.47 44.3425 189.766 44.9765 189.766 45.83C189.766 46.6022 190.316 47.0656 191.207 47.3826C191.944 47.6671 192.235 47.9597 192.235 48.4718C192.235 49.0246 191.814 49.4066 191.094 49.4066C190.608 49.4066 190.146 49.244 189.831 49.049L189.652 49.6423Z" fill="black"/><path d="M196.673 47.4964C196.673 46.7079 196.382 45.8869 195.183 45.8869C194.689 45.8869 194.22 46.0251 193.896 46.2364L194.058 46.7079C194.333 46.5291 194.714 46.4153 195.078 46.4153C195.88 46.4153 195.969 47.0005 195.969 47.3257V47.407C194.455 47.3988 193.613 47.9191 193.613 48.8701C193.613 49.4391 194.017 50 194.811 50C195.37 50 195.791 49.7236 196.009 49.4147H196.033L196.09 49.9106H196.738C196.689 49.6423 196.673 49.3091 196.673 48.9677V47.4964ZM195.985 48.5856C195.985 48.6588 195.969 48.7401 195.944 48.8132C195.831 49.1465 195.507 49.4716 194.997 49.4716C194.633 49.4716 194.325 49.2522 194.325 48.7888C194.325 48.0247 195.208 47.8866 195.985 47.9028V48.5856Z" fill="black"/><path d="M201.106 45.9763H200.393V48.3905C200.393 48.5206 200.369 48.6506 200.328 48.7563C200.199 49.0733 199.867 49.4066 199.389 49.4066C198.741 49.4066 198.515 48.9026 198.515 48.1548V45.9763H197.802V48.2767C197.802 49.6586 198.539 50 199.154 50C199.851 50 200.263 49.5854 200.45 49.2684H200.466L200.506 49.9106H201.138C201.114 49.6017 201.106 49.244 201.106 48.8376V45.9763Z" fill="black"/><path d="M204.958 44.1392V46.4884H204.942C204.764 46.1714 204.359 45.8869 203.76 45.8869C202.804 45.8869 201.994 46.6916 202.003 48.0004C202.003 49.1953 202.731 50 203.679 50C204.318 50 204.796 49.6667 205.015 49.2278H205.031L205.063 49.9106H205.703C205.678 49.6423 205.67 49.244 205.67 48.8945V44.1392H204.958ZM204.958 48.2605C204.958 48.3743 204.95 48.4718 204.925 48.5694C204.796 49.1059 204.359 49.4229 203.881 49.4229C203.112 49.4229 202.723 48.7644 202.723 47.9678C202.723 47.0981 203.16 46.4478 203.897 46.4478C204.432 46.4478 204.82 46.8217 204.925 47.2769C204.95 47.3663 204.958 47.4882 204.958 47.5777V48.2605Z" fill="black"/><path d="M207.569 49.9106V45.9763H206.856V49.9106H207.569ZM207.212 44.4237C206.953 44.4237 206.767 44.6188 206.767 44.8708C206.767 45.1147 206.945 45.3098 207.196 45.3098C207.48 45.3098 207.658 45.1147 207.65 44.8708C207.65 44.6188 207.48 44.4237 207.212 44.4237Z" fill="black"/></svg>