<?xml version="1.0" encoding="UTF-8"?>
<svg id="Layer_2" data-name="Layer 2" xmlns="http://www.w3.org/2000/svg" viewBox="0 0 93.35 26.98">
  <defs>
    <style>
      .cls-1 {
        fill: #6d6e71;
      }

      .cls-1, .cls-2, .cls-3 {
        stroke-width: 0px;
      }

      .cls-2 {
        fill: #808082;
      }

      .cls-3 {
        fill: #00a8a5;
      }
    </style>
  </defs>
  <g id="Layer_1-2" data-name="Layer 1">
    <g>
      <g>
        <g>
          <path class="cls-3" d="m31.41,13.41c.21-.2.46-.37.75-.48.57-.22,1.29-.24,1.87,0,.28.12.54.3.77.54l.17.17.95-.92-.15-.17c-.33-.37-.73-.65-1.19-.83-.46-.18-.97-.28-1.5-.28s-1.03.09-1.48.27c-.45.18-.86.43-1.19.76-.34.33-.6.71-.79,1.15-.19.44-.28.93-.28,1.45s.1,1.01.28,1.45c.19.44.45.82.79,1.15.33.33.73.58,1.19.76.45.18.95.27,1.48.27s1.06-.1,1.52-.28c.46-.19.87-.47,1.19-.84l.15-.17-.96-.93-.17.18c-.23.24-.49.43-.77.54-.58.24-1.3.23-1.87,0-.29-.11-.54-.27-.75-.48-.21-.2-.37-.45-.49-.73-.12-.28-.18-.59-.18-.93s.06-.64.18-.93c.12-.28.28-.53.49-.73Z"/>
          <path class="cls-3" d="m42.99,12.47c-.34-.33-.74-.58-1.2-.76-.45-.18-.95-.27-1.48-.27s-1.04.09-1.5.27c-.46.18-.86.44-1.2.77-.34.33-.6.71-.79,1.15-.19.44-.28.92-.28,1.44s.1,1,.28,1.44c.19.44.45.83.79,1.15.34.33.74.58,1.2.77.46.18.96.27,1.49.27s1.03-.09,1.48-.27c.45-.18.86-.43,1.2-.76.34-.33.61-.72.79-1.15.19-.44.28-.93.28-1.45s-.09-1.01-.28-1.45c-.19-.44-.45-.83-.79-1.15Zm-.35,2.6c0,.33-.06.64-.18.92-.12.28-.28.53-.49.73-.21.21-.45.37-.73.48-.57.23-1.31.23-1.87,0-.28-.11-.53-.28-.74-.48-.21-.21-.38-.45-.49-.73-.12-.28-.18-.59-.18-.92s.06-.64.18-.92c.12-.28.28-.52.49-.73.21-.21.46-.37.74-.48.28-.11.6-.17.94-.17s.65.06.93.17c.28.11.53.28.73.48.21.21.37.45.49.73.12.28.18.59.18.92Z"/>
          <polygon class="cls-3" points="49.79 16.02 46.16 11.52 45.03 11.52 45.03 18.62 46.46 18.62 46.46 14.12 50.08 18.62 51.21 18.62 51.21 11.52 49.79 11.52 49.79 16.02"/>
          <path class="cls-3" d="m56.78,14.98c-.25-.14-.53-.26-.84-.34-.29-.08-.59-.16-.87-.23-.28-.06-.53-.14-.76-.22-.2-.07-.37-.16-.49-.28-.1-.09-.15-.22-.15-.38,0-.15.04-.28.12-.39.08-.12.22-.22.42-.29.38-.15,1.03-.18,1.69,0,.29.08.57.21.83.38l.24.16.5-1.21-.16-.11c-.3-.2-.65-.36-1.06-.47-.4-.11-.8-.16-1.21-.16-.61,0-1.13.1-1.53.28-.42.19-.73.46-.94.78-.2.32-.31.68-.31,1.07s.09.73.26,1c.17.26.39.46.66.61.25.14.53.26.83.35.29.09.59.16.87.23.27.06.53.13.75.21.2.07.37.17.49.29.1.09.15.21.15.37,0,.14-.04.27-.12.38-.08.12-.23.21-.42.28-.21.08-.5.12-.85.12-.39,0-.78-.07-1.14-.2-.36-.13-.66-.3-.89-.5l-.24-.21-.56,1.18.13.12c.29.27.68.49,1.18.65.48.16,1,.24,1.52.24.61,0,1.13-.09,1.54-.28.42-.19.74-.45.95-.78.21-.33.31-.68.31-1.06s-.09-.72-.26-.98c-.17-.25-.39-.46-.66-.61Z"/>
          <path class="cls-3" d="m63.23,15.49c0,.67-.14,1.16-.42,1.45-.28.29-.68.44-1.21.44s-.92-.14-1.2-.44c-.28-.29-.42-.78-.42-1.45v-3.97h-1.43v4.01c0,1.02.28,1.81.82,2.36.54.54,1.29.82,2.22.82s1.69-.28,2.23-.82c.54-.54.81-1.34.81-2.36v-4.01h-1.4v3.97Z"/>
          <polygon class="cls-3" points="67.33 11.52 65.9 11.52 65.9 18.62 70.92 18.62 70.92 17.32 67.33 17.32 67.33 11.52"/>
          <polygon class="cls-3" points="69.81 12.82 72.08 12.82 72.08 18.62 73.5 18.62 73.5 12.82 75.77 12.82 75.77 11.52 69.81 11.52 69.81 12.82"/>
          <rect class="cls-3" x="76.79" y="11.52" width="1.43" height="7.11"/>
          <polygon class="cls-3" points="84.29 16.02 80.67 11.52 79.54 11.52 79.54 18.62 80.96 18.62 80.96 14.12 84.59 18.62 85.72 18.62 85.72 11.52 84.29 11.52 84.29 16.02"/>
          <path class="cls-3" d="m93.21,14.79h-1.39v2.26c-.12.07-.25.13-.37.17-.62.21-1.34.2-1.9-.02-.29-.11-.55-.28-.76-.48-.21-.21-.38-.45-.49-.73-.12-.28-.18-.59-.18-.92s.06-.64.18-.93c.12-.28.28-.53.49-.73.21-.2.47-.37.76-.48.59-.23,1.34-.23,1.92,0,.29.11.56.29.8.53l.17.17.91-.91-.15-.17c-.33-.37-.73-.65-1.2-.83-.46-.18-.97-.27-1.53-.27s-1.05.09-1.51.27c-.46.18-.86.43-1.2.76-.34.33-.61.72-.8,1.15-.19.44-.28.93-.28,1.45s.1,1.01.28,1.45c.19.44.45.82.79,1.15.34.33.74.58,1.2.76.45.18.96.27,1.5.27.49,0,.97-.08,1.43-.22.43-.14.82-.34,1.15-.61l.17.02v-.16l.09-.07-.09-.12v-2.74Z"/>
        </g>
        <g>
          <path class="cls-1" d="m34.81.6c-.53-.24-1.17-.36-1.9-.36h-3.46v8.36h1.68v-2.37h1.77c.73,0,1.37-.12,1.9-.36.53-.24.95-.59,1.24-1.04.29-.45.43-.99.43-1.6s-.15-1.15-.43-1.6c-.29-.45-.7-.8-1.24-1.04Zm-3.67,1.09h1.7c.65,0,1.14.14,1.47.4.32.26.48.65.48,1.15s-.16.87-.48,1.14c-.32.27-.82.41-1.47.41h-1.7V1.69Z"/>
          <path class="cls-1" d="m43.45,4.89c0,.82-.17,1.42-.52,1.79-.34.36-.84.55-1.48.55s-1.14-.18-1.48-.55c-.35-.37-.52-.97-.52-1.79V.24h-1.68v4.71c0,1.21.33,2.15.98,2.8.65.65,1.56.97,2.7.97s2.04-.33,2.69-.97c.65-.65.98-1.59.98-2.8V.24h-1.66v4.65Z"/>
          <path class="cls-1" d="m52.44,5.86c.53-.24.95-.58,1.24-1.03.29-.44.43-.98.43-1.6s-.15-1.15-.43-1.6c-.29-.45-.7-.8-1.24-1.04-.53-.24-1.17-.36-1.9-.36h-3.46v8.36h1.68v-2.39h1.77c.1,0,.19,0,.28,0l1.67,2.4h1.84l-1.91-2.73s.02,0,.03-.01Zm-3.67-4.17h1.7c.65,0,1.14.14,1.47.4.32.26.48.65.48,1.15s-.16.87-.48,1.15c-.32.28-.82.41-1.47.41h-1.7V1.69Z"/>
          <polygon class="cls-1" points="57.34 7.17 57.34 5.07 61.3 5.07 61.3 3.65 57.34 3.65 57.34 1.68 61.8 1.68 61.8 .24 55.65 .24 55.65 8.61 61.97 8.61 61.97 7.17 57.34 7.17"/>
        </g>
        <g>
          <path class="cls-1" d="m4.17,5.11c.52.16,1.03.37,1.5.63.02.01.05.03.06.04l.03.02c2.3,1.32,3.72,3.78,3.72,6.43,0,3.02-1.86,5.75-4.65,6.88v-3.41H0v11.07h4.84v-2.87c5.35-1.27,9.22-6.16,9.22-11.67C14.06,5.61,8.68.22,2.07.22,1.4.22.75.28.13.38l-.13.02v4.41l.18-.02c1.2-.12,2.34-.07,3.38.15.11.02.22.05.33.08l.24.07m.08-.14h0,0s0,0,0,0Z"/>
          <path class="cls-1" d="m20.49,15.86c-1.33,2.39-3.84,3.87-6.57,3.87-.28,0-.56-.02-.86-.05h-.09s-.05.07-.05.07c-.97,1.4-2.19,2.58-3.61,3.51l-.25.17.28.11c1.46.59,3,.9,4.59.9,4.47,0,8.58-2.45,10.73-6.38"/>
          <path class="cls-3" d="m24.54,6.2C22.37,2.37,18.3,0,13.92,0c-1.59,0-3.13.3-4.59.9l-.28.11.25.17c1.42.93,2.64,2.11,3.61,3.51l.05.08h.09c.29-.04.58-.06.86-.06,2.66,0,5.15,1.44,6.5,3.75l.08.13,4.13-2.25-.08-.14Z"/>
        </g>
      </g>
      <g>
        <g>
          <path class="cls-2" d="m30.99,25.7c-.32,0-.57-.05-.75-.14-.18-.1-.31-.24-.39-.44-.08-.2-.12-.45-.12-.76s.04-.57.12-.77c.08-.2.21-.35.39-.45.18-.1.43-.15.75-.15h1.16v2.47h-.51v-2.19l.21.18h-.86c-.19,0-.34.02-.45.07-.11.05-.19.13-.23.27-.04.13-.07.32-.07.58s.02.44.07.57c.04.13.12.22.23.26.11.05.26.07.46.07h1.74v.45h-1.74Zm-.61-3.21v-.53h.5v.53h-.5Zm.81,0v-.53h.5v.53h-.5Zm1.54,3.21v-.45s.04,0,.05.02c.01.01.03.03.03.04,0,.02.01.04.02.07,0,.03,0,.06,0,.09,0,.03,0,.06,0,.09,0,.03,0,.05-.02.07,0,.02-.02.04-.03.05-.01.01-.03.02-.05.02Z"/>
          <path class="cls-2" d="m32.77,25.73h-1.78c-.32,0-.58-.05-.77-.15-.19-.1-.33-.26-.41-.47-.08-.2-.12-.47-.12-.78s.04-.58.12-.78c.08-.21.22-.37.41-.47.19-.1.44-.15.77-.15h1.2v2.27h.58s.03.02.04.02c.02.01.04.04.05.06,0,.02.01.05.02.08,0,.03,0,.06,0,.1,0,.03,0,.07,0,.1,0,.03-.01.06-.02.08-.01.03-.03.05-.05.06-.01,0-.02.01-.04.02h0Zm-1.78-2.72c-.31,0-.55.05-.73.14-.17.09-.3.24-.37.43-.08.2-.11.45-.11.76s.04.55.11.75c.07.19.2.33.37.42.18.09.42.14.73.14h1.7v-.37h-.5v.2h-.59v-.2h-.61c-.2,0-.36-.02-.47-.07-.12-.05-.2-.15-.25-.29-.04-.13-.07-.33-.07-.58s.02-.45.07-.59c.05-.14.13-.24.25-.29.11-.05.27-.07.47-.07h.61v-.23l.35.31h-.27v1.73h.43v-2.19h-1.12Zm1.78,2.28v.34s0-.01.01-.02c0-.02.01-.04.01-.06,0-.03,0-.06,0-.09,0-.03,0-.06,0-.09,0-.02,0-.04-.01-.06,0,0,0-.01-.01-.02Zm-1.09.1h.43v-.12h-.43v.12Zm-.69-1.93c-.19,0-.33.02-.44.06-.1.04-.17.12-.21.24-.04.13-.06.32-.06.57s.02.43.06.55c.04.12.11.2.2.24.1.04.25.07.44.07h.61v-1.73h-.61Zm.69-.08h.06l-.06-.05v.05Zm.05-.86h-.58v-.61h.58v.61Zm-.5-.08h.42v-.45h-.42v.45Zm-.31.08h-.58v-.61h.58v.61Zm-.5-.08h.42v-.45h-.42v.45Z"/>
        </g>
        <g>
          <path class="cls-2" d="m32.73,25.7s-.04,0-.05-.02c-.01-.01-.03-.03-.03-.05,0-.02-.01-.04-.02-.07,0-.03,0-.06,0-.09,0-.05,0-.09,0-.12s.02-.06.03-.08c.02-.02.04-.03.07-.03v.45Zm0,0v-.45h1.36v.45h-1.36Zm1.36,0v-.45s.04,0,.05.02c.01.01.03.03.03.04,0,.02.01.04.02.07,0,.03,0,.06,0,.09,0,.03,0,.06,0,.09,0,.03,0,.05-.02.07,0,.02-.02.04-.03.05-.01.01-.03.02-.05.02Z"/>
          <path class="cls-2" d="m34.14,25.73h-1.44s-.03-.02-.04-.02c-.02-.02-.04-.04-.05-.06,0-.02-.01-.05-.02-.08,0-.03,0-.06,0-.1,0-.05,0-.09,0-.13,0-.04.02-.07.04-.1.02-.02.04-.03.06-.04h0s1.44,0,1.44,0h0s.03.02.04.02c.02.01.04.04.05.06,0,.02.01.05.02.08,0,.03,0,.06,0,.1,0,.03,0,.07,0,.1,0,.03-.01.06-.02.08-.01.03-.03.05-.05.06-.01,0-.02.01-.04.02h0Zm-1.36-.08h1.28v-.37h-1.28v.37Zm1.36-.35v.34s0-.01.01-.02c0-.02.01-.04.01-.06,0-.03,0-.06,0-.09,0-.03,0-.06,0-.09,0-.02,0-.04-.01-.06,0,0,0-.01-.01-.02Zm-1.44,0s-.02.03-.02.05c0,.03,0,.07,0,.11,0,.03,0,.06,0,.09,0,.03,0,.05.01.06,0,0,0,.01,0,.02v-.34Z"/>
        </g>
        <g>
          <path class="cls-2" d="m34.1,25.7s-.04,0-.05-.02c-.01-.01-.03-.03-.03-.05,0-.02-.01-.04-.02-.07,0-.03,0-.06,0-.09,0-.05,0-.09,0-.12s.02-.06.03-.08c.02-.02.04-.03.07-.03v.45Zm0,0v-.45h1.36v.45h-1.36Zm1.36,0v-.45s.04,0,.05.02c.01.01.03.03.03.04,0,.02.01.04.02.07,0,.03,0,.06,0,.09,0,.03,0,.06,0,.09,0,.03,0,.05-.02.07,0,.02-.02.04-.03.05-.01.01-.03.02-.05.02Z"/>
          <path class="cls-2" d="m35.5,25.73h-1.44s-.03-.02-.04-.02c-.02-.02-.04-.04-.05-.06,0-.02-.01-.05-.02-.08,0-.03,0-.06,0-.1,0-.05,0-.09,0-.13,0-.04.02-.07.04-.1.02-.02.04-.03.06-.04h0s1.44,0,1.44,0h0s.03.02.04.02c.02.01.04.04.05.06,0,.02.01.05.02.08,0,.03,0,.06,0,.1,0,.03,0,.07,0,.1,0,.03-.01.06-.02.08-.01.03-.03.05-.05.06-.01,0-.02.01-.04.02h0Zm-1.36-.08h1.28v-.37h-1.28v.37Zm1.36-.35v.34s0-.01.01-.02c0-.02.01-.04.01-.06,0-.03,0-.06,0-.09,0-.03,0-.06,0-.09,0-.02,0-.04-.01-.06,0,0,0-.01-.01-.02Zm-1.44,0s-.02.03-.02.05c0,.03,0,.07,0,.11,0,.03,0,.06,0,.09,0,.03,0,.05.01.06,0,0,0,.01,0,.02v-.34Z"/>
        </g>
        <g>
          <path class="cls-2" d="m35.46,25.7s-.04,0-.05-.02c-.01-.01-.03-.03-.03-.05,0-.02-.01-.04-.02-.07,0-.03,0-.06,0-.09,0-.05,0-.09,0-.12s.02-.06.03-.08c.02-.02.04-.03.07-.03v.45Zm0,0v-.45h1.36v.45h-1.36Zm1.36,0v-.45s.04,0,.05.02c.01.01.03.03.03.04,0,.02.01.04.02.07,0,.03,0,.06,0,.09,0,.03,0,.06,0,.09,0,.03,0,.05-.02.07,0,.02-.02.04-.03.05-.01.01-.03.02-.05.02Z"/>
          <path class="cls-2" d="m36.87,25.73h-1.44s-.03-.02-.04-.02c-.02-.02-.04-.04-.05-.06,0-.02-.01-.05-.02-.08,0-.03,0-.06,0-.1,0-.05,0-.09,0-.13,0-.04.02-.07.04-.1.02-.02.04-.03.06-.04h0s1.44,0,1.44,0h0s.03.02.04.02c.02.01.04.04.05.06,0,.02.01.05.02.08,0,.03,0,.06,0,.1,0,.03,0,.07,0,.1,0,.03-.01.06-.02.08-.01.03-.03.05-.05.06-.01,0-.02.01-.04.02h0Zm-1.36-.08h1.28v-.37h-1.28v.37Zm1.36-.35v.34s0-.01.01-.02c0-.02.01-.04.01-.06,0-.03,0-.06,0-.09,0-.03,0-.06,0-.09,0-.02,0-.04-.01-.06,0,0,0-.01-.01-.02Zm-1.44,0s-.02.03-.02.05c0,.03,0,.07,0,.11,0,.03,0,.06,0,.09,0,.03,0,.05.01.06,0,0,0,.01,0,.02v-.34Z"/>
        </g>
        <g>
          <path class="cls-2" d="m36.83,25.7s-.04,0-.05-.02c-.01-.01-.03-.03-.03-.05,0-.02-.01-.04-.02-.07,0-.03,0-.06,0-.09,0-.05,0-.09,0-.12s.02-.06.03-.08c.02-.02.04-.03.07-.03v.45Zm0,0v-.45h1.36v.45h-1.36Zm1.36,0v-.45s.04,0,.05.02c.01.01.03.03.03.04,0,.02.01.04.02.07,0,.03,0,.06,0,.09,0,.03,0,.06,0,.09,0,.03,0,.05-.02.07,0,.02-.02.04-.03.05-.01.01-.03.02-.05.02Z"/>
          <path class="cls-2" d="m38.23,25.73h-1.44s-.03-.02-.04-.02c-.02-.02-.04-.04-.05-.06,0-.02-.01-.05-.02-.08,0-.03,0-.06,0-.1,0-.05,0-.09,0-.13,0-.04.02-.07.04-.1.02-.02.04-.03.06-.04h0s1.44,0,1.44,0h0s.03.02.04.02c.02.01.04.04.05.06,0,.02.01.05.02.08,0,.03,0,.06,0,.1,0,.03,0,.07,0,.1,0,.03-.01.06-.02.08-.01.03-.03.05-.05.06-.01,0-.02.01-.04.02h0Zm-1.36-.08h1.28v-.37h-1.28v.37Zm1.36-.35v.34s0-.01.01-.02c0-.02.01-.04.01-.06,0-.03,0-.06,0-.09,0-.03,0-.06,0-.09,0-.02,0-.04-.01-.06,0,0,0-.01-.01-.02Zm-1.44,0s-.02.03-.02.05c0,.03,0,.07,0,.11,0,.03,0,.06,0,.09,0,.03,0,.05.01.06,0,0,0,.01,0,.02v-.34Z"/>
        </g>
        <g>
          <path class="cls-2" d="m38.19,25.7s-.04,0-.05-.02c-.01-.01-.03-.03-.03-.05,0-.02-.01-.04-.02-.07,0-.03,0-.06,0-.09,0-.05,0-.09,0-.12s.02-.06.03-.08c.02-.02.04-.03.07-.03v.45Zm0,0v-.45h1.36v.45h-1.36Zm1.36,0v-.45s.04,0,.05.02c.01.01.03.03.03.04,0,.02.01.04.02.07,0,.03,0,.06,0,.09,0,.03,0,.06,0,.09,0,.03,0,.05-.02.07,0,.02-.02.04-.03.05-.01.01-.03.02-.05.02Z"/>
          <path class="cls-2" d="m39.6,25.73h-1.44s-.03-.02-.04-.02c-.02-.02-.04-.04-.05-.06,0-.02-.01-.05-.02-.08,0-.03,0-.06,0-.1,0-.05,0-.09,0-.13,0-.04.02-.07.04-.1.02-.02.04-.03.06-.04h0s1.44,0,1.44,0h0s.03.02.04.02c.02.01.04.04.05.06,0,.02.01.05.02.08,0,.03,0,.06,0,.1,0,.03,0,.07,0,.1,0,.03-.01.06-.02.08-.01.03-.03.05-.05.06-.01,0-.02.01-.04.02h0Zm-1.36-.08h1.28v-.37h-1.28v.37Zm1.36-.35v.34s0-.01.01-.02c0-.02.01-.04.01-.06,0-.03,0-.06,0-.09,0-.03,0-.06,0-.09,0-.02,0-.04-.01-.06,0,0,0-.01-.01-.02Zm-1.44,0s-.02.03-.02.05c0,.03,0,.07,0,.11,0,.03,0,.06,0,.09,0,.03,0,.05.01.06,0,0,0,.01,0,.02v-.34Z"/>
        </g>
        <g>
          <path class="cls-2" d="m39.56,25.7s-.04,0-.05-.02c-.01-.01-.03-.03-.03-.05,0-.02-.01-.04-.02-.07,0-.03,0-.06,0-.09,0-.05,0-.09,0-.12s.02-.06.03-.08c.02-.02.04-.03.07-.03v.45Zm0,0v-.45h1.36v.45h-1.36Zm1.36,0v-.45s.04,0,.05.02c.01.01.03.03.03.04,0,.02.01.04.02.07,0,.03,0,.06,0,.09,0,.03,0,.06,0,.09,0,.03,0,.05-.02.07,0,.02-.02.04-.03.05-.01.01-.03.02-.05.02Z"/>
          <path class="cls-2" d="m40.96,25.73h-1.44s-.03-.02-.04-.02c-.02-.02-.04-.04-.05-.06,0-.02-.01-.05-.02-.08,0-.03,0-.06,0-.1,0-.05,0-.09,0-.13,0-.04.02-.07.04-.1.02-.02.04-.03.06-.04h0s1.44,0,1.44,0h0s.03.02.04.02c.02.01.04.04.05.06,0,.02.01.05.02.08,0,.03,0,.06,0,.1,0,.03,0,.07,0,.1,0,.03-.01.06-.02.08-.01.03-.03.05-.05.06-.01,0-.02.01-.04.02h0Zm-1.36-.08h1.28v-.37h-1.28v.37Zm1.36-.35v.34s0-.01.01-.02c0-.02.01-.04.01-.06,0-.03,0-.06,0-.09,0-.03,0-.06,0-.09,0-.02,0-.04-.01-.06,0,0,0-.01-.01-.02Zm-1.44,0s-.02.03-.02.05c0,.03,0,.07,0,.11,0,.03,0,.06,0,.09,0,.03,0,.05.01.06,0,0,0,.01,0,.02v-.34Z"/>
        </g>
        <g>
          <path class="cls-2" d="m40.92,25.7s-.04,0-.05-.02c-.01-.01-.03-.03-.03-.05,0-.02-.01-.04-.02-.07,0-.03,0-.06,0-.09,0-.05,0-.09,0-.12s.02-.06.03-.08c.02-.02.04-.03.07-.03v.45Zm0,0v-.45h.93l-.26.21v-2.47h.51v2.72h-1.17Zm.21,1.03v-.53h.5v.53h-.5Zm.81,0v-.53h.5v.53h-.5Z"/>
          <path class="cls-2" d="m42.49,26.76h-.58v-.61h.58v.61Zm-.5-.08h.42v-.45h-.42v.45Zm-.31.08h-.58v-.61h.58v.61Zm-.5-.08h.42v-.45h-.42v.45Zm.96-.95h-1.25s-.03-.02-.04-.02c-.02-.02-.04-.04-.05-.06,0-.02-.01-.05-.02-.08,0-.03,0-.06,0-.1,0-.05,0-.09,0-.13,0-.04.02-.07.04-.1.02-.02.04-.03.06-.04h0s.67,0,.67,0v-2.27h.59v2.8Zm-1.17-.08h1.09v-2.64h-.43v2.19h.34l-.42.33v-.25h-.59v.37Zm-.08-.36s-.02.03-.02.05c0,.03,0,.07,0,.11,0,.03,0,.06,0,.09,0,.03,0,.05.01.06,0,0,0,.01,0,.02v-.34Zm.75-.02v.08l.11-.08h-.11Z"/>
        </g>
        <g>
          <path class="cls-2" d="m43.03,26.94s-.1,0-.15,0c-.05,0-.11-.01-.16-.01l.04-.45c.05,0,.1,0,.15.01.05,0,.08,0,.11,0,.16,0,.3-.06.4-.18.1-.12.15-.29.15-.52v-2.8h.51v2.8c0,.23-.05.43-.14.6-.09.17-.21.31-.37.41-.16.1-.34.15-.55.15Z"/>
          <path class="cls-2" d="m43.03,26.98s-.1,0-.15,0c-.05,0-.11,0-.16-.01h-.04s.05-.53.05-.53h.04c.05,0,.11,0,.15.01.04,0,.08,0,.11,0,.15,0,.27-.06.36-.17.09-.12.14-.28.14-.49v-2.84h.59v2.84c0,.23-.05.44-.14.62-.09.18-.22.32-.39.42-.16.1-.35.15-.57.15Zm-.27-.1s.08,0,.12.01c.05,0,.1,0,.15,0,.2,0,.38-.05.52-.14.15-.09.27-.23.36-.39.09-.17.13-.36.13-.58v-2.76h-.43v2.76c0,.23-.05.41-.16.54-.11.13-.25.2-.43.2-.03,0-.07,0-.11,0-.03,0-.07,0-.11,0l-.04.37Z"/>
        </g>
        <g>
          <path class="cls-2" d="m44.98,25.7v-3.87h.51v3.87h-.51Zm.51,0v-.45h.66v.45h-.66Zm.66,0v-.45s.03,0,.05.02c.01.01.03.03.03.04,0,.02.01.04.02.07,0,.03,0,.06,0,.09,0,.03,0,.06,0,.09,0,.03-.01.05-.02.07,0,.02-.02.04-.03.05-.01.01-.03.02-.05.02Z"/>
          <path class="cls-2" d="m46.18,25.73h-1.24v-3.95h.59v3.42h.66s.02.02.03.02c.02.01.04.04.05.06,0,.02.02.05.02.08,0,.03,0,.06,0,.1,0,.03,0,.07,0,.1,0,.03-.01.06-.02.08-.01.03-.03.05-.05.06-.01,0-.02.01-.03.02h0Zm-.66-.08h.58v-.37h-.58v.37Zm-.51,0h.43v-3.79h-.43v3.79Zm1.16-.35v.32s0,0,0-.01c0-.02.01-.04.02-.07,0-.03,0-.05,0-.08,0-.03,0-.06,0-.09,0-.02-.01-.04-.02-.06,0,0,0,0,0,0Z"/>
        </g>
        <g>
          <path class="cls-2" d="m46.14,25.7s-.04,0-.05-.02c-.01-.01-.03-.03-.03-.05,0-.02-.01-.04-.02-.07,0-.03,0-.06,0-.09,0-.05,0-.09,0-.12s.02-.06.03-.08c.02-.02.04-.03.07-.03v.45Zm0,0v-.45h1.36v.45h-1.36Zm1.36,0v-.45s.04,0,.05.02c.01.01.03.03.03.04,0,.02.01.04.02.07,0,.03,0,.06,0,.09,0,.03,0,.06,0,.09,0,.03,0,.05-.02.07,0,.02-.02.04-.03.05-.01.01-.03.02-.05.02Z"/>
          <path class="cls-2" d="m47.54,25.73h-1.44s-.03-.02-.04-.02c-.02-.02-.04-.04-.05-.06,0-.02-.01-.05-.02-.08,0-.03,0-.06,0-.1,0-.05,0-.09,0-.13,0-.04.02-.07.04-.1.02-.02.04-.03.06-.04h0s1.44,0,1.44,0h0s.03.02.04.02c.02.01.04.04.05.06,0,.02.01.05.02.08,0,.03,0,.06,0,.1,0,.03,0,.07,0,.1,0,.03-.01.06-.02.08-.01.03-.03.05-.05.06-.01,0-.02.01-.04.02h0Zm-1.36-.08h1.28v-.37h-1.28v.37Zm1.36-.35v.34s0-.01.01-.02c0-.02.01-.04.01-.06,0-.03,0-.06,0-.09,0-.03,0-.06,0-.09,0-.02,0-.04-.01-.06,0,0,0-.01-.01-.02Zm-1.44,0s-.02.03-.02.05c0,.03,0,.07,0,.11,0,.03,0,.06,0,.09,0,.03,0,.05.01.06,0,0,0,.01,0,.02v-.34Z"/>
        </g>
        <g>
          <path class="cls-2" d="m47.5,25.7s-.04,0-.05-.02c-.01-.01-.03-.03-.03-.05,0-.02-.01-.04-.02-.07,0-.03,0-.06,0-.09,0-.05,0-.09,0-.12s.02-.06.03-.08c.02-.02.04-.03.07-.03v.45Zm0,0v-.45h1.36v.45h-1.36Zm1.36,0v-.45s.04,0,.05.02c.01.01.03.03.03.04,0,.02.01.04.02.07,0,.03,0,.06,0,.09,0,.03,0,.06,0,.09,0,.03,0,.05-.02.07,0,.02-.02.04-.03.05-.01.01-.03.02-.05.02Z"/>
          <path class="cls-2" d="m48.91,25.73h-1.44s-.03-.02-.04-.02c-.02-.02-.04-.04-.05-.06,0-.02-.01-.05-.02-.08,0-.03,0-.06,0-.1,0-.05,0-.09,0-.13,0-.04.02-.07.04-.1.02-.02.04-.03.06-.04h0s1.44,0,1.44,0h0s.03.02.04.02c.02.01.04.04.05.06,0,.02.01.05.02.08,0,.03,0,.06,0,.1,0,.03,0,.07,0,.1,0,.03-.01.06-.02.08-.01.03-.03.05-.05.06-.01,0-.02.01-.04.02h0Zm-1.36-.08h1.28v-.37h-1.28v.37Zm1.36-.35v.34s0-.01.01-.02c0-.02.01-.04.01-.06,0-.03,0-.06,0-.09,0-.03,0-.06,0-.09,0-.02,0-.04-.01-.06,0,0,0-.01-.01-.02Zm-1.44,0s-.02.03-.02.05c0,.03,0,.07,0,.11,0,.03,0,.06,0,.09,0,.03,0,.05.01.06,0,0,0,.01,0,.02v-.34Z"/>
        </g>
        <g>
          <path class="cls-2" d="m48.87,25.7s-.04,0-.05-.02c-.01-.01-.03-.03-.03-.05,0-.02-.01-.04-.02-.07,0-.03,0-.06,0-.09,0-.05,0-.09,0-.12s.02-.06.03-.08c.02-.02.04-.03.07-.03v.45Zm0,0v-.45h1.36v.45h-1.36Zm1.36,0v-.45s.04,0,.05.02c.01.01.03.03.03.04,0,.02.01.04.02.07,0,.03,0,.06,0,.09,0,.03,0,.06,0,.09,0,.03,0,.05-.02.07,0,.02-.02.04-.03.05-.01.01-.03.02-.05.02Z"/>
          <path class="cls-2" d="m50.27,25.73h-1.44s-.03-.02-.04-.02c-.02-.02-.04-.04-.05-.06,0-.02-.01-.05-.02-.08,0-.03,0-.06,0-.1,0-.05,0-.09,0-.13,0-.04.02-.07.04-.1.02-.02.04-.03.06-.04h0s1.44,0,1.44,0h0s.03.02.04.02c.02.01.04.04.05.06,0,.02.01.05.02.08,0,.03,0,.06,0,.1,0,.03,0,.07,0,.1,0,.03-.01.06-.02.08-.01.03-.03.05-.05.06-.01,0-.02.01-.04.02h0Zm-1.36-.08h1.28v-.37h-1.28v.37Zm1.36-.35v.34s0-.01.01-.02c0-.02.01-.04.01-.06,0-.03,0-.06,0-.09,0-.03,0-.06,0-.09,0-.02,0-.04-.01-.06,0,0,0-.01-.01-.02Zm-1.44,0s-.02.03-.02.05c0,.03,0,.07,0,.11,0,.03,0,.06,0,.09,0,.03,0,.05.01.06,0,0,0,.01,0,.02v-.34Z"/>
        </g>
        <g>
          <path class="cls-2" d="m50.23,25.7s-.04,0-.05-.02c-.01-.01-.03-.03-.03-.05,0-.02-.01-.04-.02-.07,0-.03,0-.06,0-.09,0-.05,0-.09,0-.12s.02-.06.03-.08c.02-.02.04-.03.07-.03v.45Zm0,0v-.45h1.36v.45h-1.36Zm1.36,0v-.45s.04,0,.05.02c.01.01.03.03.03.04,0,.02.01.04.02.07,0,.03,0,.06,0,.09,0,.03,0,.06,0,.09,0,.03,0,.05-.02.07,0,.02-.02.04-.03.05-.01.01-.03.02-.05.02Z"/>
          <path class="cls-2" d="m51.64,25.73h-1.44s-.03-.02-.04-.02c-.02-.02-.04-.04-.05-.06,0-.02-.01-.05-.02-.08,0-.03,0-.06,0-.1,0-.05,0-.09,0-.13,0-.04.02-.07.04-.1.02-.02.04-.03.06-.04h0s1.44,0,1.44,0h0s.03.02.04.02c.02.01.04.04.05.06,0,.02.01.05.02.08,0,.03,0,.06,0,.1,0,.03,0,.07,0,.1,0,.03-.01.06-.02.08-.01.03-.03.05-.05.06-.01,0-.02.01-.04.02h0Zm-1.36-.08h1.28v-.37h-1.28v.37Zm1.36-.35v.34s0-.01.01-.02c0-.02.01-.04.01-.06,0-.03,0-.06,0-.09,0-.03,0-.06,0-.09,0-.02,0-.04-.01-.06,0,0,0-.01-.01-.02Zm-1.44,0s-.02.03-.02.05c0,.03,0,.07,0,.11,0,.03,0,.06,0,.09,0,.03,0,.05.01.06,0,0,0,.01,0,.02v-.34Z"/>
        </g>
        <g>
          <path class="cls-2" d="m51.6,25.7s-.04,0-.05-.02c-.01-.01-.03-.03-.03-.05,0-.02-.01-.04-.02-.07,0-.03,0-.06,0-.09,0-.05,0-.09,0-.12s.02-.06.03-.08c.02-.02.04-.03.07-.03v.45Zm0,0v-.45h1.36v.45h-1.36Zm1.36,0v-.45s.04,0,.05.02c.01.01.03.03.03.04,0,.02.01.04.02.07,0,.03,0,.06,0,.09,0,.03,0,.06,0,.09,0,.03,0,.05-.02.07,0,.02-.02.04-.03.05-.01.01-.03.02-.05.02Z"/>
          <path class="cls-2" d="m53,25.73h-1.44s-.03-.02-.04-.02c-.02-.02-.04-.04-.05-.06,0-.02-.01-.05-.02-.08,0-.03,0-.06,0-.1,0-.05,0-.09,0-.13,0-.04.02-.07.04-.1.02-.02.04-.03.06-.04h0s1.44,0,1.44,0h0s.03.02.04.02c.02.01.04.04.05.06,0,.02.01.05.02.08,0,.03,0,.06,0,.1,0,.03,0,.07,0,.1,0,.03-.01.06-.02.08-.01.03-.03.05-.05.06-.01,0-.02.01-.04.02h0Zm-1.36-.08h1.28v-.37h-1.28v.37Zm1.36-.35v.34s0-.01.01-.02c0-.02.01-.04.01-.06,0-.03,0-.06,0-.09,0-.03,0-.06,0-.09,0-.02,0-.04-.01-.06,0,0,0-.01-.01-.02Zm-1.44,0s-.02.03-.02.05c0,.03,0,.07,0,.11,0,.03,0,.06,0,.09,0,.03,0,.05.01.06,0,0,0,.01,0,.02v-.34Z"/>
        </g>
        <g>
          <path class="cls-2" d="m52.96,25.7s-.04,0-.05-.02c-.01-.01-.03-.03-.03-.05,0-.02-.01-.04-.02-.07,0-.03,0-.06,0-.09,0-.05,0-.09,0-.12s.02-.06.03-.08c.02-.02.04-.03.07-.03v.45Zm0,0v-.45h.8l-.13.12v-1.84h.51v2.17h-1.18Zm1.18,0v-.45h.57c.12,0,.22-.02.28-.05.06-.04.11-.11.13-.22.03-.11.04-.27.04-.48v-1.24h.51v1.24c0,.29-.03.53-.1.71-.07.18-.17.3-.31.38-.14.08-.32.11-.55.11h-.57Zm.61-3.21v-.53h.5v.53h-.5Zm.43-.75v-.48h.46v.48h-.46Zm.74,3.95c-.13,0-.26-.02-.38-.07-.13-.05-.24-.13-.36-.23l.32-.34c.08.07.15.11.22.14.07.03.13.05.2.05h.99l-.22.22v-1.27c0-.07,0-.16-.02-.27-.01-.12-.03-.25-.05-.4-.02-.15-.05-.3-.08-.46l.5-.08c.03.13.05.27.08.43.03.16.05.3.07.44.02.14.03.25.03.34v1.5h-1.27Zm-.36-3.21v-.53h.5v.53h-.5Zm1.63,3.21v-.45h.58v.45h-.58Zm.58,0v-.45s.04,0,.05.02c.01.01.03.03.03.04,0,.02.01.04.02.07,0,.03,0,.06,0,.09,0,.03,0,.06,0,.09,0,.03,0,.05-.02.07,0,.02-.02.04-.03.05-.01.01-.03.02-.05.02Z"/>
          <path class="cls-2" d="m57.82,25.73h-1.9c-.14,0-.27-.03-.4-.08-.06-.02-.12-.05-.18-.09-.02.02-.05.03-.07.05-.14.08-.34.12-.57.12h-1.79s-.03-.02-.04-.02c-.02-.02-.04-.04-.05-.06,0-.02-.01-.05-.02-.08,0-.03,0-.06,0-.1,0-.05,0-.09,0-.13,0-.04.02-.07.04-.1.02-.02.04-.03.06-.04h0s.67,0,.67,0v-1.72h.59v1.72h.53c.12,0,.2-.02.26-.05.05-.03.09-.09.11-.19.02-.11.04-.26.04-.47v-1.28h.59v1.28c0,.24-.02.44-.07.61.04.02.07.04.1.06.06.03.12.04.19.04h.72v-1.01c0-.06,0-.15-.02-.27-.01-.12-.03-.25-.05-.4-.02-.15-.05-.3-.08-.46v-.04s.57-.09.57-.09v.04c.03.13.06.28.08.43.03.16.05.31.07.45.02.14.03.26.03.35v1.01h.58s.03.02.04.02c.02.01.04.04.05.06,0,.02.01.05.02.08,0,.03,0,.06,0,.1,0,.03,0,.07,0,.1,0,.03-.01.06-.02.08-.01.03-.03.05-.05.06-.01,0-.02.01-.04.02h0Zm-.58-.08h.5v-.37h-.5v.37Zm-1.82-.14s.09.05.14.07c.12.05.25.07.37.07h1.23v-1.46c0-.08,0-.2-.03-.34-.02-.14-.04-.29-.07-.44-.02-.14-.05-.27-.07-.39l-.42.07c.03.14.05.28.08.42.02.15.04.28.05.4.01.12.02.21.02.28v1.01h.28l-.36.35v-.27h-.72c-.07,0-.15-.02-.22-.05-.03-.01-.06-.03-.09-.05,0,.01,0,.02-.01.03-.05.12-.11.22-.19.3Zm-1.23.14h.53c.22,0,.4-.04.53-.11.01,0,.03-.02.04-.02-.04-.03-.08-.06-.12-.1l-.03-.03.38-.39.03.02s.03.02.04.03c.04-.15.06-.34.06-.56v-1.2h-.43v1.2c0,.21-.01.38-.04.49-.03.12-.08.2-.15.24-.07.04-.17.06-.3.06h-.53v.37Zm-1.18,0h1.1v-2.09h-.43v1.64h.18l-.26.26v-.18h-.59v.37Zm-.08-.36s-.02.03-.02.05c0,.03,0,.07,0,.11,0,.03,0,.06,0,.09,0,.03,0,.05.01.06,0,0,0,.01,0,.02v-.34Zm4.9,0v.34s0-.01.01-.02c0-.02.01-.04.01-.06,0-.03,0-.06,0-.09,0-.03,0-.06,0-.09,0-.02,0-.04-.01-.06,0,0,0-.01-.01-.02Zm-2.58.09s.07.06.1.08c.08-.07.14-.17.19-.28,0-.02.01-.03.02-.05-.01,0-.03-.02-.04-.03l-.27.28Zm1.49-.1v.08l.09-.08h-.09Zm-.62-2.76h-.58v-.61h.58v.61Zm-.5-.08h.42v-.45h-.42v.45Zm-.31.08h-.58v-.61h.58v.61Zm-.5-.08h.42v-.45h-.42v.45Zm.89-.67h-.54v-.56h.54v.56Zm-.46-.08h.38v-.4h-.38v.4Z"/>
        </g>
        <g>
          <path class="cls-2" d="m57.78,25.7s-.04,0-.05-.02c-.01-.01-.03-.03-.03-.05,0-.02-.01-.04-.02-.07,0-.03,0-.06,0-.09,0-.05,0-.09,0-.12s.02-.06.03-.08c.02-.02.04-.03.07-.03v.45Zm0,0v-.45h1.36v.45h-1.36Zm1.36,0v-.45s.04,0,.05.02c.01.01.03.03.03.04,0,.02.01.04.02.07,0,.03,0,.06,0,.09,0,.03,0,.06,0,.09,0,.03,0,.05-.02.07,0,.02-.02.04-.03.05-.01.01-.03.02-.05.02Z"/>
          <path class="cls-2" d="m59.18,25.73h-1.44s-.03-.02-.04-.02c-.02-.02-.04-.04-.05-.06,0-.02-.01-.05-.02-.08,0-.03,0-.06,0-.1,0-.05,0-.09,0-.13,0-.04.02-.07.04-.1.02-.02.04-.03.06-.04h0s1.44,0,1.44,0h0s.03.02.04.02c.02.01.04.04.05.06,0,.02.01.05.02.08,0,.03,0,.06,0,.1,0,.03,0,.07,0,.1,0,.03-.01.06-.02.08-.01.03-.03.05-.05.06-.01,0-.02.01-.04.02h0Zm-1.36-.08h1.28v-.37h-1.28v.37Zm1.36-.35v.34s0-.01.01-.02c0-.02.01-.04.01-.06,0-.03,0-.06,0-.09,0-.03,0-.06,0-.09,0-.02,0-.04-.01-.06,0,0,0-.01-.01-.02Zm-1.44,0s-.02.03-.02.05c0,.03,0,.07,0,.11,0,.03,0,.06,0,.09,0,.03,0,.05.01.06,0,0,0,.01,0,.02v-.34Z"/>
        </g>
        <g>
          <path class="cls-2" d="m59.14,25.7s-.04,0-.05-.02c-.01-.01-.03-.03-.03-.05,0-.02-.01-.04-.02-.07,0-.03,0-.06,0-.09,0-.05,0-.09,0-.12s.02-.06.03-.08c.02-.02.04-.03.07-.03v.45Zm0,0v-.45h1.36v.45h-1.36Zm1.36,0v-.45s.04,0,.05.02c.01.01.03.03.03.04,0,.02.01.04.02.07,0,.03,0,.06,0,.09,0,.03,0,.06,0,.09,0,.03,0,.05-.02.07,0,.02-.02.04-.03.05-.01.01-.03.02-.05.02Z"/>
          <path class="cls-2" d="m60.55,25.73h-1.44s-.03-.02-.04-.02c-.02-.02-.04-.04-.05-.06,0-.02-.01-.05-.02-.08,0-.03,0-.06,0-.1,0-.05,0-.09,0-.13,0-.04.02-.07.04-.1.02-.02.04-.03.06-.04h0s1.44,0,1.44,0h0s.03.02.04.02c.02.01.04.04.05.06,0,.02.01.05.02.08,0,.03,0,.06,0,.1,0,.03,0,.07,0,.1,0,.03-.01.06-.02.08-.01.03-.03.05-.05.06-.01,0-.02.01-.04.02h0Zm-1.36-.08h1.28v-.37h-1.28v.37Zm1.36-.35v.34s0-.01.01-.02c0-.02.01-.04.01-.06,0-.03,0-.06,0-.09,0-.03,0-.06,0-.09,0-.02,0-.04-.01-.06,0,0,0-.01-.01-.02Zm-1.44,0s-.02.03-.02.05c0,.03,0,.07,0,.11,0,.03,0,.06,0,.09,0,.03,0,.05.01.06,0,0,0,.01,0,.02v-.34Z"/>
        </g>
        <g>
          <path class="cls-2" d="m60.51,25.7s-.04,0-.05-.02c-.01-.01-.03-.03-.03-.05,0-.02-.01-.04-.02-.07,0-.03,0-.06,0-.09,0-.05,0-.09,0-.12s.02-.06.03-.08c.02-.02.04-.03.07-.03v.45Zm0,0v-.45h1.36v.45h-1.36Zm1.36,0v-.45s.04,0,.05.02c.01.01.03.03.03.04,0,.02.01.04.02.07,0,.03,0,.06,0,.09,0,.03,0,.06,0,.09,0,.03,0,.05-.02.07,0,.02-.02.04-.03.05-.01.01-.03.02-.05.02Z"/>
          <path class="cls-2" d="m61.91,25.73h-1.44s-.03-.02-.04-.02c-.02-.02-.04-.04-.05-.06,0-.02-.01-.05-.02-.08,0-.03,0-.06,0-.1,0-.05,0-.09,0-.13,0-.04.02-.07.04-.1.02-.02.04-.03.06-.04h0s1.44,0,1.44,0h0s.03.02.04.02c.02.01.04.04.05.06,0,.02.01.05.02.08,0,.03,0,.06,0,.1,0,.03,0,.07,0,.1,0,.03-.01.06-.02.08-.01.03-.03.05-.05.06-.01,0-.02.01-.04.02h0Zm-1.36-.08h1.28v-.37h-1.28v.37Zm1.36-.35v.34s0-.01.01-.02c0-.02.01-.04.01-.06,0-.03,0-.06,0-.09,0-.03,0-.06,0-.09,0-.02,0-.04-.01-.06,0,0,0-.01-.01-.02Zm-1.44,0s-.02.03-.02.05c0,.03,0,.07,0,.11,0,.03,0,.06,0,.09,0,.03,0,.05.01.06,0,0,0,.01,0,.02v-.34Z"/>
        </g>
        <g>
          <path class="cls-2" d="m61.87,25.7s-.04,0-.05-.02c-.01-.01-.03-.03-.03-.05,0-.02-.01-.04-.02-.07,0-.03,0-.06,0-.09,0-.05,0-.09,0-.12s.02-.06.03-.08c.02-.02.04-.03.07-.03v.45Zm0,0v-.45h.93l-.26.21v-2.47h.51v2.72h-1.17Zm.26-3.21v-.53h.5v.53h-.5Zm.81,0v-.53h.5v.53h-.5Zm.1,3.21v-.45h.62v.45h-.62Zm.62,0v-.45s.04,0,.05.02c.01.01.03.03.03.04,0,.02.01.04.02.07,0,.03,0,.06,0,.09,0,.03,0,.06,0,.09,0,.03,0,.05-.02.07,0,.02-.02.04-.03.05-.01.01-.03.02-.05.02Z"/>
          <path class="cls-2" d="m63.7,25.73h-1.87s-.03-.02-.04-.02c-.02-.02-.04-.04-.05-.06,0-.02-.01-.05-.02-.08,0-.03,0-.06,0-.1,0-.05,0-.09,0-.13,0-.04.02-.07.04-.1.02-.02.04-.03.06-.04h0s.67,0,.67,0v-2.27h.59v2.27h.62s.03.02.04.02c.02.01.04.04.05.06,0,.02.01.05.02.08,0,.03,0,.06,0,.1,0,.03,0,.07,0,.1,0,.03-.01.06-.02.08-.01.03-.03.05-.05.06-.01,0-.02.01-.04.02h0Zm-.62-.08h.54v-.37h-.54v.37Zm-1.17,0h1.09v-2.64h-.43v2.19h.34l-.42.33v-.25h-.59v.37Zm-.08-.36s-.02.03-.02.05c0,.03,0,.07,0,.11,0,.03,0,.06,0,.09,0,.03,0,.05.01.06,0,0,0,.01,0,.02v-.34Zm1.87,0v.34s0-.01.01-.02c0-.02.01-.04.01-.06,0-.03,0-.06,0-.09,0-.03,0-.06,0-.09,0-.02,0-.04-.01-.06,0,0,0-.01-.01-.02Zm-1.12-.02v.08l.11-.08h-.11Zm.91-2.76h-.58v-.61h.58v.61Zm-.5-.08h.42v-.45h-.42v.45Zm-.31.08h-.58v-.61h.58v.61Zm-.5-.08h.42v-.45h-.42v.45Z"/>
        </g>
        <g>
          <path class="cls-2" d="m63.66,25.7s-.04,0-.05-.02c-.01-.01-.03-.03-.03-.05,0-.02-.01-.04-.02-.07,0-.03,0-.06,0-.09,0-.05,0-.09,0-.12s.02-.06.03-.08c.02-.02.04-.03.07-.03v.45Zm0,0v-.45h1.36v.45h-1.36Zm1.36,0v-.45s.04,0,.05.02c.01.01.03.03.03.04,0,.02.01.04.02.07,0,.03,0,.06,0,.09,0,.03,0,.06,0,.09,0,.03,0,.05-.02.07,0,.02-.02.04-.03.05-.01.01-.03.02-.05.02Z"/>
          <path class="cls-2" d="m65.07,25.73h-1.44s-.03-.02-.04-.02c-.02-.02-.04-.04-.05-.06,0-.02-.01-.05-.02-.08,0-.03,0-.06,0-.1,0-.05,0-.09,0-.13,0-.04.02-.07.04-.1.02-.02.04-.03.06-.04h0s1.44,0,1.44,0h0s.03.02.04.02c.02.01.04.04.05.06,0,.02.01.05.02.08,0,.03,0,.06,0,.1,0,.03,0,.07,0,.1,0,.03-.01.06-.02.08-.01.03-.03.05-.05.06-.01,0-.02.01-.04.02h0Zm-1.36-.08h1.28v-.37h-1.28v.37Zm1.36-.35v.34s0-.01.01-.02c0-.02.01-.04.01-.06,0-.03,0-.06,0-.09,0-.03,0-.06,0-.09,0-.02,0-.04-.01-.06,0,0,0-.01-.01-.02Zm-1.44,0s-.02.03-.02.05c0,.03,0,.07,0,.11,0,.03,0,.06,0,.09,0,.03,0,.05.01.06,0,0,0,.01,0,.02v-.34Z"/>
        </g>
        <g>
          <path class="cls-2" d="m65.03,25.7s-.04,0-.05-.02c-.01-.01-.03-.03-.03-.05,0-.02-.01-.04-.02-.07,0-.03,0-.06,0-.09,0-.05,0-.09,0-.12s.02-.06.03-.08c.02-.02.04-.03.07-.03v.45Zm0,0v-.45h1.36v.45h-1.36Zm1.36,0v-.45s.04,0,.05.02c.01.01.03.03.03.04,0,.02.01.04.02.07,0,.03,0,.06,0,.09,0,.03,0,.06,0,.09,0,.03,0,.05-.02.07,0,.02-.02.04-.03.05-.01.01-.03.02-.05.02Z"/>
          <path class="cls-2" d="m66.43,25.73h-1.44s-.03-.02-.04-.02c-.02-.02-.04-.04-.05-.06,0-.02-.01-.05-.02-.08,0-.03,0-.06,0-.1,0-.05,0-.09,0-.13,0-.04.02-.07.04-.1.02-.02.04-.03.06-.04h0s1.44,0,1.44,0h0s.03.02.04.02c.02.01.04.04.05.06,0,.02.01.05.02.08,0,.03,0,.06,0,.1,0,.03,0,.07,0,.1,0,.03-.01.06-.02.08-.01.03-.03.05-.05.06-.01,0-.02.01-.04.02h0Zm-1.36-.08h1.28v-.37h-1.28v.37Zm1.36-.35v.34s0-.01.01-.02c0-.02.01-.04.01-.06,0-.03,0-.06,0-.09,0-.03,0-.06,0-.09,0-.02,0-.04-.01-.06,0,0,0-.01-.01-.02Zm-1.44,0s-.02.03-.02.05c0,.03,0,.07,0,.11,0,.03,0,.06,0,.09,0,.03,0,.05.01.06,0,0,0,.01,0,.02v-.34Z"/>
        </g>
        <g>
          <path class="cls-2" d="m66.39,25.7s-.04,0-.05-.02c-.01-.01-.03-.03-.03-.05,0-.02-.01-.04-.02-.07,0-.03,0-.06,0-.09,0-.05,0-.09,0-.12s.02-.06.03-.08c.02-.02.04-.03.07-.03v.45Zm0,0v-.45h.8l-.13.12v-1.84h.51v2.17h-1.18Zm1.18,0v-.45h.57c.12,0,.22-.02.28-.05.06-.04.11-.11.13-.22.03-.11.04-.27.04-.48v-1.24h.51v1.24c0,.29-.03.53-.1.71-.07.18-.17.3-.31.38-.14.08-.32.11-.55.11h-.57Zm1.78,0c-.13,0-.26-.02-.38-.07-.13-.05-.24-.13-.36-.23l.32-.34c.08.07.15.11.22.14.07.03.13.05.2.05h.99l-.22.22v-1.27c0-.07,0-.16-.02-.27-.01-.12-.03-.25-.05-.4-.02-.15-.05-.3-.08-.46l.5-.08c.03.13.05.27.08.43.03.16.05.3.07.44.02.14.03.25.03.34v1.5h-1.27Z"/>
          <path class="cls-2" d="m70.67,25.73h-1.31c-.14,0-.27-.03-.4-.08-.06-.02-.12-.05-.18-.09-.02.02-.05.03-.07.05-.14.08-.34.12-.57.12h-1.79s-.03-.02-.04-.02c-.02-.02-.04-.04-.05-.06,0-.02-.01-.05-.02-.08,0-.03,0-.06,0-.1,0-.05,0-.09,0-.13,0-.04.02-.07.04-.1.02-.02.04-.03.06-.04h0s.67,0,.67,0v-1.72h.59v1.72h.53c.12,0,.2-.02.26-.05.05-.03.09-.09.11-.19.02-.11.04-.26.04-.47v-1.28h.59v1.28c0,.24-.02.44-.07.61.04.02.07.04.1.06.06.03.12.04.19.04h.72v-1.01c0-.06,0-.15-.02-.27-.01-.12-.03-.25-.05-.4-.02-.15-.05-.3-.08-.46v-.04s.57-.09.57-.09v.04c.03.13.06.28.08.43.03.16.05.31.07.45.02.14.03.26.03.35v1.54Zm-1.82-.22s.09.05.14.07c.12.05.25.07.37.07h1.23v-1.46c0-.08,0-.2-.03-.34-.02-.14-.04-.29-.07-.44-.02-.14-.05-.27-.07-.39l-.42.07c.03.14.05.28.08.42.02.15.04.28.05.4.01.12.02.21.02.28v1.01h.28l-.36.35v-.27h-.72c-.07,0-.15-.02-.22-.05-.03-.01-.06-.03-.09-.05,0,.01,0,.02-.01.03-.05.12-.11.22-.19.3Zm-1.23.14h.53c.22,0,.4-.04.53-.11.01,0,.03-.02.04-.02-.04-.03-.08-.06-.12-.1l-.03-.03.38-.39.03.02s.03.02.04.03c.04-.15.06-.34.06-.56v-1.2h-.43v1.2c0,.21-.01.38-.04.49-.03.12-.08.2-.15.24-.07.04-.17.06-.3.06h-.53v.37Zm-1.18,0h1.1v-2.09h-.43v1.64h.18l-.26.26v-.18h-.59v.37Zm-.08-.36s-.02.03-.02.05c0,.03,0,.07,0,.11,0,.03,0,.06,0,.09,0,.03,0,.05.01.06,0,0,0,.01,0,.02v-.34Zm2.32.09s.07.06.1.08c.08-.07.14-.17.19-.28,0-.02.01-.03.02-.05-.01,0-.03-.02-.04-.03l-.27.28Zm1.49-.1v.08l.09-.08h-.09Z"/>
        </g>
        <g>
          <path class="cls-2" d="m71.25,25.7v-.45h2.7l-.27.27v-3.69h.51v3.87h-2.94Zm.84-.45v-2.66h.51v2.66h-.51Z"/>
          <path class="cls-2" d="m74.23,25.73h-3.02v-.53h.84v-2.66h.59v2.66h1v-3.42h.59v3.95Zm-2.94-.08h2.86v-3.79h-.43v3.34h.32l-.4.41v-.33h-2.35v.37Zm2.43-.37v.13l.13-.13h-.13Zm-1.59-.08h.43v-2.58h-.43v2.58Z"/>
        </g>
        <g>
          <path class="cls-2" d="m75.13,25.7v-3.87h.51v3.87h-.51Z"/>
          <path class="cls-2" d="m75.68,25.73h-.59v-3.95h.59v3.95Zm-.51-.08h.43v-3.79h-.43v3.79Z"/>
        </g>
        <g>
          <path class="cls-2" d="m77.44,26.94s-.1,0-.15,0c-.05,0-.11-.01-.16-.01l.04-.45c.05,0,.1,0,.15.01.05,0,.08,0,.11,0,.16,0,.3-.06.4-.18.1-.12.15-.29.15-.52v-2.8h.51v2.8c0,.23-.05.43-.14.6-.09.17-.21.31-.37.41-.16.1-.34.15-.55.15Z"/>
          <path class="cls-2" d="m77.44,26.98s-.1,0-.15,0c-.05,0-.11,0-.16-.01h-.04s.05-.53.05-.53h.04c.05,0,.11,0,.15.01.04,0,.08,0,.11,0,.15,0,.27-.06.36-.17.09-.12.14-.28.14-.49v-2.84h.59v2.84c0,.23-.05.44-.14.62-.09.18-.22.32-.39.42-.16.1-.35.15-.57.15Zm-.27-.1s.08,0,.12.01c.05,0,.1,0,.15,0,.2,0,.38-.05.52-.14.15-.09.27-.23.36-.39.09-.17.13-.36.13-.58v-2.76h-.43v2.76c0,.23-.05.41-.16.54-.11.13-.25.2-.43.2-.03,0-.07,0-.11,0-.03,0-.07,0-.11,0l-.04.37Z"/>
        </g>
        <g>
          <path class="cls-2" d="m80.16,26.94c-.13,0-.27,0-.41-.03-.14-.02-.3-.05-.47-.08l.08-.41c.19.02.35.04.48.05.13.01.24.02.33.02.29,0,.5-.05.64-.16.13-.11.2-.27.2-.47v-2.55l.21.14h-.86c-.19,0-.34.02-.45.07-.11.05-.19.13-.23.27-.04.13-.07.32-.07.58s.02.44.07.57c.04.13.12.22.23.26.11.05.26.07.46.07h.65v.45h-.65c-.32,0-.57-.05-.75-.14-.18-.1-.31-.24-.39-.44-.08-.2-.12-.45-.12-.76s.04-.57.12-.77c.08-.2.21-.35.39-.45.18-.1.43-.15.75-.15h1.16v2.86c0,.23-.05.43-.16.59-.11.16-.26.29-.46.37-.2.08-.44.13-.72.13Zm1.34-1.24v-.45h.58v.45h-.58Zm.58,0v-.45s.04,0,.05.02c.01.01.03.03.03.04,0,.02.01.04.02.07,0,.03,0,.06,0,.09,0,.03,0,.06,0,.09,0,.03,0,.05-.02.07,0,.02-.02.04-.03.05-.01.01-.03.02-.05.02Z"/>
          <path class="cls-2" d="m80.16,26.98c-.13,0-.27-.01-.42-.03-.14-.02-.3-.05-.47-.08h-.04s.09-.49.09-.49h.04c.19.03.35.04.48.05.13.01.23.02.32.02.28,0,.49-.05.61-.15.12-.1.18-.25.18-.44v-.11h-.61c-.32,0-.58-.05-.77-.15-.19-.1-.33-.26-.41-.47-.08-.2-.12-.47-.12-.78s.04-.58.12-.78c.08-.21.22-.37.41-.47.19-.1.44-.15.77-.15h1.2v2.27h.58s.03.02.04.02c.02.01.04.04.05.06,0,.02.01.05.02.08,0,.03,0,.06,0,.1,0,.03,0,.07,0,.1,0,.03-.01.06-.02.08-.01.03-.03.05-.05.06-.01,0-.02.01-.04.02h0s-.58,0-.58,0v.11c0,.24-.06.45-.17.62-.11.17-.28.3-.48.39-.2.09-.45.13-.73.13Zm-.84-.18c.16.03.3.06.43.08.44.06.82.03,1.11-.09.19-.08.34-.2.45-.36.1-.16.16-.35.16-.57v-2.82h-1.12c-.31,0-.55.05-.73.14-.17.09-.3.24-.37.43-.08.2-.11.45-.11.76s.04.55.11.75c.07.19.2.33.37.42.18.09.42.14.73.14h.61v-.37h-.61c-.2,0-.36-.02-.47-.07-.12-.05-.2-.15-.25-.29-.04-.13-.07-.33-.07-.58s.02-.45.07-.59c.05-.14.13-.24.25-.29.11-.05.27-.07.47-.07h.61v-.17l.38.25h-.3v2.37c0,.22-.07.39-.21.5-.14.11-.36.17-.66.17-.09,0-.2,0-.33-.02-.12-.01-.27-.03-.44-.04l-.06.33Zm2.22-1.14h.5v-.37h-.5v.37Zm.58-.35v.34s0-.01.01-.02c0-.02.01-.04.01-.06,0-.03,0-.06,0-.09,0-.03,0-.06,0-.09,0-.02,0-.04-.01-.06,0,0,0-.01-.01-.02Zm-1.78-1.83c-.19,0-.33.02-.44.06-.1.04-.17.12-.21.24-.04.13-.06.32-.06.57s.02.43.06.55c.04.12.11.2.2.24.1.04.25.07.44.07h.61v-1.73h-.61Zm.69-.08h.03l-.03-.02v.02Z"/>
        </g>
        <g>
          <path class="cls-2" d="m82.09,25.7s-.04,0-.05-.02c-.01-.01-.03-.03-.03-.05,0-.02-.01-.04-.02-.07,0-.03,0-.06,0-.09,0-.05,0-.09,0-.12s.02-.06.03-.08c.02-.02.04-.03.07-.03v.45Zm0,0v-.45h1.36v.45h-1.36Zm1.36,0v-.45s.04,0,.05.02c.01.01.03.03.03.04,0,.02.01.04.02.07,0,.03,0,.06,0,.09,0,.03,0,.06,0,.09,0,.03,0,.05-.02.07,0,.02-.02.04-.03.05-.01.01-.03.02-.05.02Z"/>
          <path class="cls-2" d="m83.49,25.73h-1.44s-.03-.02-.04-.02c-.02-.02-.04-.04-.05-.06,0-.02-.01-.05-.02-.08,0-.03,0-.06,0-.1,0-.05,0-.09,0-.13,0-.04.02-.07.04-.1.02-.02.04-.03.06-.04h0s1.44,0,1.44,0h0s.03.02.04.02c.02.01.04.04.05.06,0,.02.01.05.02.08,0,.03,0,.06,0,.1,0,.03,0,.07,0,.1,0,.03-.01.06-.02.08-.01.03-.03.05-.05.06-.01,0-.02.01-.04.02h0Zm-1.36-.08h1.28v-.37h-1.28v.37Zm1.36-.35v.34s0-.01.01-.02c0-.02.01-.04.01-.06,0-.03,0-.06,0-.09,0-.03,0-.06,0-.09,0-.02,0-.04-.01-.06,0,0,0-.01-.01-.02Zm-1.44,0s-.02.03-.02.05c0,.03,0,.07,0,.11,0,.03,0,.06,0,.09,0,.03,0,.05.01.06,0,0,0,.01,0,.02v-.34Z"/>
        </g>
        <g>
          <path class="cls-2" d="m83.45,25.7s-.04,0-.05-.02c-.01-.01-.03-.03-.03-.05,0-.02-.01-.04-.02-.07,0-.03,0-.06,0-.09,0-.05,0-.09,0-.12s.02-.06.03-.08c.02-.02.04-.03.07-.03v.45Zm0,0v-.45h1.36v.45h-1.36Zm1.36,0v-.45s.04,0,.05.02c.01.01.03.03.03.04,0,.02.01.04.02.07,0,.03,0,.06,0,.09,0,.03,0,.06,0,.09,0,.03,0,.05-.02.07,0,.02-.02.04-.03.05-.01.01-.03.02-.05.02Z"/>
          <path class="cls-2" d="m84.85,25.73h-1.44s-.03-.02-.04-.02c-.02-.02-.04-.04-.05-.06,0-.02-.01-.05-.02-.08,0-.03,0-.06,0-.1,0-.05,0-.09,0-.13,0-.04.02-.07.04-.1.02-.02.04-.03.06-.04h0s1.44,0,1.44,0h0s.03.02.04.02c.02.01.04.04.05.06,0,.02.01.05.02.08,0,.03,0,.06,0,.1,0,.03,0,.07,0,.1,0,.03-.01.06-.02.08-.01.03-.03.05-.05.06-.01,0-.02.01-.04.02h0Zm-1.36-.08h1.28v-.37h-1.28v.37Zm1.36-.35v.34s0-.01.01-.02c0-.02.01-.04.01-.06,0-.03,0-.06,0-.09,0-.03,0-.06,0-.09,0-.02,0-.04-.01-.06,0,0,0-.01-.01-.02Zm-1.44,0s-.02.03-.02.05c0,.03,0,.07,0,.11,0,.03,0,.06,0,.09,0,.03,0,.05.01.06,0,0,0,.01,0,.02v-.34Z"/>
        </g>
        <g>
          <path class="cls-2" d="m84.81,25.7s-.04,0-.05-.02c-.01-.01-.03-.03-.03-.05,0-.02-.01-.04-.02-.07,0-.03,0-.06,0-.09,0-.05,0-.09,0-.12s.02-.06.03-.08c.02-.02.04-.03.07-.03v.45Zm0,0v-.45h1.36v.45h-1.36Zm1.36,0v-.45s.04,0,.05.02c.01.01.03.03.03.04,0,.02.01.04.02.07,0,.03,0,.06,0,.09,0,.03,0,.06,0,.09,0,.03,0,.05-.02.07,0,.02-.02.04-.03.05-.01.01-.03.02-.05.02Z"/>
          <path class="cls-2" d="m86.22,25.73h-1.44s-.03-.02-.04-.02c-.02-.02-.04-.04-.05-.06,0-.02-.01-.05-.02-.08,0-.03,0-.06,0-.1,0-.05,0-.09,0-.13,0-.04.02-.07.04-.1.02-.02.04-.03.06-.04h0s1.44,0,1.44,0h0s.03.02.04.02c.02.01.04.04.05.06,0,.02.01.05.02.08,0,.03,0,.06,0,.1,0,.03,0,.07,0,.1,0,.03-.01.06-.02.08-.01.03-.03.05-.05.06-.01,0-.02.01-.04.02h0Zm-1.36-.08h1.28v-.37h-1.28v.37Zm1.36-.35v.34s0-.01.01-.02c0-.02.01-.04.01-.06,0-.03,0-.06,0-.09,0-.03,0-.06,0-.09,0-.02,0-.04-.01-.06,0,0,0-.01-.01-.02Zm-1.44,0s-.02.03-.02.05c0,.03,0,.07,0,.11,0,.03,0,.06,0,.09,0,.03,0,.05.01.06,0,0,0,.01,0,.02v-.34Z"/>
        </g>
        <g>
          <path class="cls-2" d="m86.18,25.7s-.04,0-.05-.02c-.01-.01-.03-.03-.03-.05,0-.02-.01-.04-.02-.07,0-.03,0-.06,0-.09,0-.05,0-.09,0-.12s.02-.06.03-.08c.02-.02.04-.03.07-.03v.45Zm0,0v-.45h1.36v.45h-1.36Zm1.36,0v-.45s.04,0,.05.02c.01.01.03.03.03.04,0,.02.01.04.02.07,0,.03,0,.06,0,.09,0,.03,0,.06,0,.09,0,.03,0,.05-.02.07,0,.02-.02.04-.03.05-.01.01-.03.02-.05.02Z"/>
          <path class="cls-2" d="m87.58,25.73h-1.44s-.03-.02-.04-.02c-.02-.02-.04-.04-.05-.06,0-.02-.01-.05-.02-.08,0-.03,0-.06,0-.1,0-.05,0-.09,0-.13,0-.04.02-.07.04-.1.02-.02.04-.03.06-.04h0s1.44,0,1.44,0h0s.03.02.04.02c.02.01.04.04.05.06,0,.02.01.05.02.08,0,.03,0,.06,0,.1,0,.03,0,.07,0,.1,0,.03-.01.06-.02.08-.01.03-.03.05-.05.06-.01,0-.02.01-.04.02h0Zm-1.36-.08h1.28v-.37h-1.28v.37Zm1.36-.35v.34s0-.01.01-.02c0-.02.01-.04.01-.06,0-.03,0-.06,0-.09,0-.03,0-.06,0-.09,0-.02,0-.04-.01-.06,0,0,0-.01-.01-.02Zm-1.44,0s-.02.03-.02.05c0,.03,0,.07,0,.11,0,.03,0,.06,0,.09,0,.03,0,.05.01.06,0,0,0,.01,0,.02v-.34Z"/>
        </g>
        <g>
          <path class="cls-2" d="m87.54,25.7s-.04,0-.05-.02c-.01-.01-.03-.03-.03-.05,0-.02-.01-.04-.02-.07,0-.03,0-.06,0-.09,0-.05,0-.09,0-.12s.02-.06.03-.08c.02-.02.04-.03.07-.03v.45Zm0,0v-.45h.93l-.26.21v-2.47h.51v2.72h-1.17Zm.21,1.03v-.53h.5v.53h-.5Zm.81,0v-.53h.5v.53h-.5Zm.15-1.03v-.45h.62v.45h-.62Zm.62,0v-.45s.04,0,.05.02c.01.01.03.03.03.04,0,.02.01.04.02.07,0,.03,0,.06,0,.09,0,.03,0,.06,0,.09,0,.03,0,.05-.02.07,0,.02-.02.04-.03.05-.01.01-.03.02-.05.02Z"/>
          <path class="cls-2" d="m89.11,26.76h-.58v-.61h.58v.61Zm-.5-.08h.42v-.45h-.42v.45Zm-.31.08h-.58v-.61h.58v.61Zm-.5-.08h.42v-.45h-.42v.45Zm1.58-.95h-1.87s-.03-.02-.04-.02c-.02-.02-.04-.04-.05-.06,0-.02-.01-.05-.02-.08,0-.03,0-.06,0-.1,0-.05,0-.09,0-.13,0-.04.02-.07.04-.1.02-.02.04-.03.06-.04h0s.67,0,.67,0v-2.27h.59v2.27h.62s.03.02.04.02c.02.01.04.04.05.06,0,.02.01.05.02.08,0,.03,0,.06,0,.1,0,.03,0,.07,0,.1,0,.03-.01.06-.02.08-.01.03-.03.05-.05.06-.01,0-.02.01-.04.02h0Zm-.62-.08h.54v-.37h-.54v.37Zm-1.17,0h1.09v-2.64h-.43v2.19h.34l-.42.33v-.25h-.59v.37Zm-.08-.36s-.02.03-.02.05c0,.03,0,.07,0,.11,0,.03,0,.06,0,.09,0,.03,0,.05.01.06,0,0,0,.01,0,.02v-.34Zm1.87,0v.34s0-.01.01-.02c0-.02.01-.04.01-.06,0-.03,0-.06,0-.09,0-.03,0-.06,0-.09,0-.02,0-.04-.01-.06,0,0,0-.01-.01-.02Zm-1.12-.02v.08l.11-.08h-.11Z"/>
        </g>
        <g>
          <path class="cls-2" d="m89.33,25.7s-.04,0-.05-.02c-.01-.01-.03-.03-.03-.05,0-.02-.01-.04-.02-.07,0-.03,0-.06,0-.09,0-.05,0-.09,0-.12s.02-.06.03-.08c.02-.02.04-.03.07-.03v.45Zm0,0v-.45h1.36v.45h-1.36Zm1.36,0v-.45s.04,0,.05.02c.01.01.03.03.03.04,0,.02.01.04.02.07,0,.03,0,.06,0,.09,0,.03,0,.06,0,.09,0,.03,0,.05-.02.07,0,.02-.02.04-.03.05-.01.01-.03.02-.05.02Z"/>
          <path class="cls-2" d="m90.74,25.73h-1.44s-.03-.02-.04-.02c-.02-.02-.04-.04-.05-.06,0-.02-.01-.05-.02-.08,0-.03,0-.06,0-.1,0-.05,0-.09,0-.13,0-.04.02-.07.04-.1.02-.02.04-.03.06-.04h0s1.44,0,1.44,0h0s.03.02.04.02c.02.01.04.04.05.06,0,.02.01.05.02.08,0,.03,0,.06,0,.1,0,.03,0,.07,0,.1,0,.03-.01.06-.02.08-.01.03-.03.05-.05.06-.01,0-.02.01-.04.02h0Zm-1.36-.08h1.28v-.37h-1.28v.37Zm1.36-.35v.34s0-.01.01-.02c0-.02.01-.04.01-.06,0-.03,0-.06,0-.09,0-.03,0-.06,0-.09,0-.02,0-.04-.01-.06,0,0,0-.01-.01-.02Zm-1.44,0s-.02.03-.02.05c0,.03,0,.07,0,.11,0,.03,0,.06,0,.09,0,.03,0,.05.01.06,0,0,0,.01,0,.02v-.34Z"/>
        </g>
        <g>
          <path class="cls-2" d="m90.7,25.7s-.04,0-.05-.02c-.01-.01-.03-.03-.03-.05,0-.02-.01-.04-.02-.07,0-.03,0-.06,0-.09,0-.05,0-.09,0-.12s.02-.06.03-.08c.02-.02.04-.03.07-.03v.45Zm0,0v-.45h1.36v.45h-1.36Zm1.36,0v-.45s.04,0,.05.02c.01.01.03.03.03.04,0,.02.01.04.02.07,0,.03,0,.06,0,.09,0,.03,0,.06,0,.09,0,.03,0,.05-.02.07,0,.02-.02.04-.03.05-.01.01-.03.02-.05.02Z"/>
          <path class="cls-2" d="m92.1,25.73h-1.44s-.03-.02-.04-.02c-.02-.02-.04-.04-.05-.06,0-.02-.01-.05-.02-.08,0-.03,0-.06,0-.1,0-.05,0-.09,0-.13,0-.04.02-.07.04-.1.02-.02.04-.03.06-.04h0s1.44,0,1.44,0h0s.03.02.04.02c.02.01.04.04.05.06,0,.02.01.05.02.08,0,.03,0,.06,0,.1,0,.03,0,.07,0,.1,0,.03-.01.06-.02.08-.01.03-.03.05-.05.06-.01,0-.02.01-.04.02h0Zm-1.36-.08h1.28v-.37h-1.28v.37Zm1.36-.35v.34s0-.01.01-.02c0-.02.01-.04.01-.06,0-.03,0-.06,0-.09,0-.03,0-.06,0-.09,0-.02,0-.04-.01-.06,0,0,0-.01-.01-.02Zm-1.44,0s-.02.03-.02.05c0,.03,0,.07,0,.11,0,.03,0,.06,0,.09,0,.03,0,.05.01.06,0,0,0,.01,0,.02v-.34Z"/>
        </g>
        <g>
          <path class="cls-2" d="m92.06,25.7s-.04,0-.05-.02c-.01-.01-.03-.03-.03-.05,0-.02-.01-.04-.02-.07,0-.03,0-.06,0-.09,0-.05,0-.09,0-.12s.02-.06.03-.08c.02-.02.04-.03.07-.03v.45Zm0,0v-.45h.85l-.26.21v-2.47h.51v2.72h-1.1Zm.58,1.03v-.53h.51v.53h-.51Z"/>
          <path class="cls-2" d="m93.2,26.76h-.59v-.61h.59v.61Zm-.51-.08h.43v-.45h-.43v.45Zm.51-.95h-1.18s-.03-.02-.04-.02c-.02-.02-.04-.04-.05-.06,0-.02-.01-.05-.02-.08,0-.03,0-.06,0-.1,0-.05,0-.09,0-.13,0-.04.02-.07.04-.1.02-.02.04-.03.06-.04h0s.58,0,.58,0v-2.27h.59v2.8Zm-1.1-.08h1.02v-2.64h-.43v2.19h.34l-.42.33v-.25h-.5v.37Zm-.08-.36s-.02.03-.02.05c0,.03,0,.07,0,.11,0,.03,0,.06,0,.09,0,.03,0,.05.01.06,0,0,0,.01,0,.02v-.34Zm.66-.02v.08l.11-.08h-.11Z"/>
        </g>
      </g>
    </g>
  </g>
</svg>